<svg id="Layer_1" data-name="Layer 1" xmlns="http://www.w3.org/2000/svg" xmlns:xlink="http://www.w3.org/1999/xlink" viewBox="0 0 100.23 81.46">
  <defs>
    <style>
      .cls-1 {
        fill: none;
      }

      .cls-2 {
        clip-path: url(#clip-path);
      }

      .cls-3 {
        fill: #fff;
      }
    </style>
    <clipPath id="clip-path">
      <rect class="cls-1" width="100.23" height="81.46"/>
    </clipPath>
  </defs>
  <title>logo_twitter</title>
  <g class="cls-2">
    <g id="logo_twit" data-name="logo twit">
      <g class="cls-2">
        <path class="cls-3" d="M69.39,0A20.606,20.606,0,0,0,49.36,25.25,58.41,58.41,0,0,1,6.98,3.76a20.6,20.6,0,0,0,6.36,27.45,20.42,20.42,0,0,1-9.28-2.56v0.26a20.58,20.58,0,0,0,16.5,20.16,20.68,20.68,0,0,1-5.42.72,20.361,20.361,0,0,1-3.87-.37A20.58,20.58,0,0,0,30.48,63.7,41.24,41.24,0,0,1,4.95,72.51a42.219,42.219,0,0,1-4.91-.29,58.16,58.16,0,0,0,31.52,9.24c37.82,0,58.51-31.34,58.51-58.51,0-.89,0-1.78-0.06-2.66A41.72,41.72,0,0,0,100.23,9.65a41.19,41.19,0,0,1-11.81,3.24,20.59,20.59,0,0,0,9-11.38,41.21,41.21,0,0,1-13.06,5,20.53,20.53,0,0,0-15-6.5"/>
      </g>
    </g>
  </g>
</svg>
