<svg xmlns="http://www.w3.org/2000/svg" viewBox="0 0 395.16 219.8"><defs><style>.cls-1{fill:#a6ce39;}.cls-1,.cls-2{fill-rule:evenodd;}.cls-2{fill:#56c5d0;}.cls-3{fill:#849daa;}</style></defs><title>MergingCloud-Logo1</title><g id="Layer_1" data-name="Layer 1"><path class="cls-1" d="M525.62,292.46h0a26.4,26.4,0,0,0-26.33,26.33V334a26.4,26.4,0,0,0,26.33,26.33h0a26.09,26.09,0,0,0,11.83-2.83v1.92a26.4,26.4,0,0,0,26.33,26.33h0a26.4,26.4,0,0,0,26.33-26.33V272.91c0-10.49,8.83-19.08,19.61-19.08h0a19.77,19.77,0,0,1,16.77,9.22,26.42,26.42,0,0,0-24.55-16.86h0a26.4,26.4,0,0,0-26.32,26.33v86.93a11.83,11.83,0,0,1-23.66,0v-66.9c0-15.14,12.95-23.48,22.75-23.94a26.08,26.08,0,0,0-10.92-2.39h0a26.4,26.4,0,0,0-26.33,26.33V334a11.83,11.83,0,1,1-23.66,0V318.78c0-12.84,10-22.64,22.4-24.09A26.07,26.07,0,0,0,525.62,292.46Z" transform="translate(-404.28 -246.19)"/><path class="cls-2" d="M678.09,360h0a26.4,26.4,0,0,0,26.33-26.33V318.4a26.4,26.4,0,0,0-26.33-26.33h0a26.09,26.09,0,0,0-11.83,2.83V293a26.4,26.4,0,0,0-26.33-26.33h0A26.4,26.4,0,0,0,613.61,293v86.53c0,10.49-8.83,19.08-19.61,19.08h0a19.77,19.77,0,0,1-16.77-9.22,26.42,26.42,0,0,0,24.55,16.86h0a26.4,26.4,0,0,0,26.32-26.33V293a11.83,11.83,0,0,1,23.66,0v66.9c0,15.14-12.95,23.48-22.75,23.94a26.09,26.09,0,0,0,10.92,2.39h0a26.4,26.4,0,0,0,26.33-26.33V318.4a11.83,11.83,0,1,1,23.66,0v15.24c0,12.84-10,22.64-22.4,24.09A26.08,26.08,0,0,0,678.09,360Z" transform="translate(-404.28 -246.19)"/><path class="cls-3" d="M404.28,409.11h5.94l15.48,35.64,15.48-35.64h5.64v42.48h-4V414.15h-.12l-16.2,37.44H424.8l-16.44-37.44h-.12v37.44h-4Z" transform="translate(-404.28 -246.19)"/><path class="cls-3" d="M481.5,446.37a12.14,12.14,0,0,1-5.19,4.56,16.52,16.52,0,0,1-6.81,1.38,14.76,14.76,0,0,1-5.76-1.08,13,13,0,0,1-4.44-3,13.31,13.31,0,0,1-2.85-4.62,16.88,16.88,0,0,1-1-5.91,15.85,15.85,0,0,1,1-5.76,13.74,13.74,0,0,1,2.88-4.59,13.51,13.51,0,0,1,4.38-3.06,13.71,13.71,0,0,1,5.58-1.11,13.39,13.39,0,0,1,5.61,1.11A12.29,12.29,0,0,1,479,427.2a12.46,12.46,0,0,1,2.49,4.17,13.94,13.94,0,0,1,.84,4.74v2.52H459.06a12.32,12.32,0,0,0,.45,2.91,10.29,10.29,0,0,0,1.65,3.45,10.44,10.44,0,0,0,3.21,2.88,10,10,0,0,0,5.19,1.2,11.59,11.59,0,0,0,5.34-1.32,9.62,9.62,0,0,0,4-3.6Zm-2.76-11a8.19,8.19,0,0,0-.75-3.48,9.32,9.32,0,0,0-2-2.85,9.68,9.68,0,0,0-3.06-2,9.87,9.87,0,0,0-3.75-.72,9.18,9.18,0,0,0-4.89,1.2,10.71,10.71,0,0,0-3.09,2.76,11,11,0,0,0-1.62,3,8,8,0,0,0-.48,2Z" transform="translate(-404.28 -246.19)"/><path class="cls-3" d="M490.38,431.67c0-.52,0-1.15-.06-1.89s-.07-1.49-.09-2.25-.05-1.47-.09-2.13-.06-1.17-.06-1.53h3.6q.06,1.56.09,3a9.41,9.41,0,0,0,.15,1.86,12.31,12.31,0,0,1,3.54-4,8.77,8.77,0,0,1,5.28-1.56,6,6,0,0,1,1.05.09l1,.21-.42,3.54a4.35,4.35,0,0,0-1.38-.24,10,10,0,0,0-4.05.75,7.61,7.61,0,0,0-2.82,2.07,8.65,8.65,0,0,0-1.65,3.09,13,13,0,0,0-.54,3.81v15.12h-3.6Z" transform="translate(-404.28 -246.19)"/><path class="cls-3" d="M537.12,449.79a19.7,19.7,0,0,1-1.5,8.34,13.17,13.17,0,0,1-3.75,4.92,12.46,12.46,0,0,1-4.83,2.34,20.87,20.87,0,0,1-4.68.6,21.55,21.55,0,0,1-4.11-.39,19.62,19.62,0,0,1-3.81-1.14,15.72,15.72,0,0,1-3.27-1.83,12.94,12.94,0,0,1-2.55-2.46l2.82-2.64a11.46,11.46,0,0,0,4.8,4,15.1,15.1,0,0,0,6.12,1.26A13.15,13.15,0,0,0,527,462a9.24,9.24,0,0,0,3.12-1.89,9.08,9.08,0,0,0,1.92-2.58,13.37,13.37,0,0,0,1-2.82,15,15,0,0,0,.39-2.67q.06-1.26.06-2v-3.84h-.12a11,11,0,0,1-4.23,4,13,13,0,0,1-6.27,1.44,15,15,0,0,1-5.76-1.11,14.66,14.66,0,0,1-7.89-7.59,13.61,13.61,0,0,1,0-11,14.38,14.38,0,0,1,3.18-4.5,15.45,15.45,0,0,1,4.71-3.06,14.66,14.66,0,0,1,5.76-1.14,13,13,0,0,1,6.27,1.44,11.06,11.06,0,0,1,4.23,4h.12v-4.68h3.6Zm-3.48-12.42a10.7,10.7,0,0,0-.87-4.29,10.9,10.9,0,0,0-5.82-5.82,11,11,0,0,0-8.58,0,10.91,10.91,0,0,0-5.82,5.82,11,11,0,0,0,0,8.58,10.91,10.91,0,0,0,5.82,5.82,11,11,0,0,0,8.58,0,10.91,10.91,0,0,0,5.82-5.82A10.7,10.7,0,0,0,533.64,437.37Z" transform="translate(-404.28 -246.19)"/><path class="cls-3" d="M545.64,412.89a2.66,2.66,0,1,1,.78,1.92A2.61,2.61,0,0,1,545.64,412.89Zm.9,11h3.6v27.72h-3.6Z" transform="translate(-404.28 -246.19)"/><path class="cls-3" d="M560.34,431.67q0-.78-.06-1.89t-.09-2.25q0-1.14-.09-2.13c0-.66-.06-1.17-.06-1.53h3.6q.06,1.56.09,3a9.38,9.38,0,0,0,.15,1.86h.18a9.73,9.73,0,0,1,3.6-3.93,10.49,10.49,0,0,1,5.88-1.65,11.83,11.83,0,0,1,5.28,1,8.51,8.51,0,0,1,3.21,2.67,10.07,10.07,0,0,1,1.62,3.81,21.74,21.74,0,0,1,.45,4.44v16.5h-3.6V435.27a17.67,17.67,0,0,0-.3-3.27,8.72,8.72,0,0,0-1-2.85,5.5,5.5,0,0,0-2.1-2,7.2,7.2,0,0,0-3.51-.75,10.23,10.23,0,0,0-3.75.69,8.06,8.06,0,0,0-3.06,2.1,10.15,10.15,0,0,0-2,3.54,15.07,15.07,0,0,0-.75,5v13.86h-3.6Z" transform="translate(-404.28 -246.19)"/><path class="cls-3" d="M621.54,449.79a19.7,19.7,0,0,1-1.5,8.34,13.17,13.17,0,0,1-3.75,4.92,12.46,12.46,0,0,1-4.83,2.34,20.87,20.87,0,0,1-4.68.6,21.55,21.55,0,0,1-4.11-.39,19.62,19.62,0,0,1-3.81-1.14,15.72,15.72,0,0,1-3.27-1.83,12.94,12.94,0,0,1-2.55-2.46l2.82-2.64a11.46,11.46,0,0,0,4.8,4,15.1,15.1,0,0,0,6.12,1.26,13.15,13.15,0,0,0,4.65-.72,9.24,9.24,0,0,0,3.12-1.89,9.08,9.08,0,0,0,1.92-2.58,13.37,13.37,0,0,0,1-2.82,15,15,0,0,0,.39-2.67q.06-1.26.06-2v-3.84h-.12a11,11,0,0,1-4.23,4,13,13,0,0,1-6.27,1.44,15,15,0,0,1-5.76-1.11,14.66,14.66,0,0,1-7.89-7.59,13.61,13.61,0,0,1,0-11,14.38,14.38,0,0,1,3.18-4.5,15.45,15.45,0,0,1,4.71-3.06,14.66,14.66,0,0,1,5.76-1.14,13,13,0,0,1,6.27,1.44,11.06,11.06,0,0,1,4.23,4h.12v-4.68h3.6Zm-3.48-12.42a10.7,10.7,0,0,0-.87-4.29,10.9,10.9,0,0,0-5.82-5.82,11,11,0,0,0-8.58,0,10.91,10.91,0,0,0-5.82,5.82,11,11,0,0,0,0,8.58,10.91,10.91,0,0,0,5.82,5.82,11,11,0,0,0,8.58,0,10.91,10.91,0,0,0,5.82-5.82A10.7,10.7,0,0,0,618.06,437.37Z" transform="translate(-404.28 -246.19)"/><path class="cls-3" d="M682,444.93a18,18,0,0,1-7.08,5.94,21,21,0,0,1-8.7,1.8,23.4,23.4,0,0,1-8.91-1.65,20.05,20.05,0,0,1-6.93-4.62,21.2,21.2,0,0,1-4.5-7.08,25.56,25.56,0,0,1,0-17.91,21.29,21.29,0,0,1,4.5-7.05,20.43,20.43,0,0,1,6.93-4.65,23,23,0,0,1,8.91-1.68,21.16,21.16,0,0,1,8.07,1.53,16,16,0,0,1,6.57,5.13l-3.24,2.7a11.75,11.75,0,0,0-5.07-4.38,15.38,15.38,0,0,0-6.33-1.38,18.62,18.62,0,0,0-7.47,1.44,16.64,16.64,0,0,0-5.67,4,17.52,17.52,0,0,0-3.6,5.94,22.23,22.23,0,0,0,0,14.76,17.52,17.52,0,0,0,3.6,5.94,16.66,16.66,0,0,0,5.67,4,18.64,18.64,0,0,0,7.47,1.44,15.57,15.57,0,0,0,6.75-1.59,16.25,16.25,0,0,0,3.15-2,13,13,0,0,0,2.64-3Z" transform="translate(-404.28 -246.19)"/><path class="cls-3" d="M688.8,406.23h3.6v45.36h-3.6Z" transform="translate(-404.28 -246.19)"/><path class="cls-3" d="M701,437.73a15.45,15.45,0,0,1,1.08-5.85,14,14,0,0,1,3-4.62,13.37,13.37,0,0,1,4.62-3,15.69,15.69,0,0,1,5.88-1.08,15.47,15.47,0,0,1,5.85,1.08,13.58,13.58,0,0,1,7.65,7.65,16.38,16.38,0,0,1,0,11.7,13.57,13.57,0,0,1-7.65,7.65,15.45,15.45,0,0,1-5.85,1.08,15.67,15.67,0,0,1-5.88-1.08,13.34,13.34,0,0,1-4.62-3,13.94,13.94,0,0,1-3-4.62A15.44,15.44,0,0,1,701,437.73Zm3.6,0a12.84,12.84,0,0,0,.75,4.41,10.32,10.32,0,0,0,2.19,3.6,10.57,10.57,0,0,0,3.48,2.43,12,12,0,0,0,9.12,0,10.59,10.59,0,0,0,3.48-2.43,10.32,10.32,0,0,0,2.19-3.6,13.34,13.34,0,0,0,0-8.82,10.31,10.31,0,0,0-2.19-3.6,10.59,10.59,0,0,0-3.48-2.43,12,12,0,0,0-9.12,0,10.57,10.57,0,0,0-3.48,2.43,10.31,10.31,0,0,0-2.19,3.6A12.84,12.84,0,0,0,704.64,437.73Z" transform="translate(-404.28 -246.19)"/><path class="cls-3" d="M761.7,443.79q0,.78.06,1.89t.09,2.25q0,1.14.09,2.13t.06,1.53h-3.6q-.06-1.56-.09-3a9.45,9.45,0,0,0-.15-1.86H758a9.71,9.71,0,0,1-3.6,3.93,10.5,10.5,0,0,1-5.88,1.65,12,12,0,0,1-5.31-1,8.44,8.44,0,0,1-3.24-2.67,9.69,9.69,0,0,1-1.59-3.81,23.17,23.17,0,0,1-.42-4.44v-16.5h3.6v16.32a17.49,17.49,0,0,0,.3,3.27,8.61,8.61,0,0,0,1,2.85,5.49,5.49,0,0,0,2.1,2,7.2,7.2,0,0,0,3.51.75,10.23,10.23,0,0,0,3.75-.69,8.07,8.07,0,0,0,3.06-2.1,10.19,10.19,0,0,0,2-3.54,15.1,15.1,0,0,0,.75-5V423.87h3.6Z" transform="translate(-404.28 -246.19)"/><path class="cls-3" d="M795.84,446.73h-.12a9.34,9.34,0,0,1-2.1,2.49,12.64,12.64,0,0,1-2.73,1.74,13.66,13.66,0,0,1-3.09,1,15.93,15.93,0,0,1-3.18.33,15.67,15.67,0,0,1-5.88-1.08,13.34,13.34,0,0,1-4.62-3,13.94,13.94,0,0,1-3-4.62,16.38,16.38,0,0,1,0-11.7,14,14,0,0,1,3-4.62,13.37,13.37,0,0,1,4.62-3,15.69,15.69,0,0,1,5.88-1.08,16,16,0,0,1,3.18.33,13.71,13.71,0,0,1,3.09,1,12.64,12.64,0,0,1,2.73,1.74,9.35,9.35,0,0,1,2.1,2.49h.12v-22.5h3.6v45.36h-3.6Zm.36-9a10.94,10.94,0,0,0-.9-4.41,11.29,11.29,0,0,0-2.46-3.6,11.84,11.84,0,0,0-3.66-2.43,11.44,11.44,0,0,0-4.56-.9,11.17,11.17,0,0,0-4.56.9,10.57,10.57,0,0,0-3.48,2.43,10.31,10.31,0,0,0-2.19,3.6,13.34,13.34,0,0,0,0,8.82,10.32,10.32,0,0,0,2.19,3.6,10.57,10.57,0,0,0,3.48,2.43,11.18,11.18,0,0,0,4.56.9,11.46,11.46,0,0,0,4.56-.9,11.84,11.84,0,0,0,3.66-2.43,11.3,11.3,0,0,0,2.46-3.6A11,11,0,0,0,796.2,437.73Z" transform="translate(-404.28 -246.19)"/></g></svg>