<svg id="Layer_1" data-name="Layer 1" xmlns="http://www.w3.org/2000/svg" viewBox="0 0 220.76 220.76"><defs><style>.cls-1{fill:#77b3d5;}.cls-2,.cls-9{fill:#fff;}.cls-3{fill:#e0e0e0;}.cls-4{opacity:0.2;}.cls-5{fill:#cf0e16;}.cls-6{fill:#a10006;}.cls-7{opacity:0.1;}.cls-8{fill:#ed1c24;}.cls-9{opacity:0.15;}</style></defs><path class="cls-1" d="M2069.16,2959q0,5.3-.49,10.47a109.88,109.88,0,0,1-11.7,40c-.56,1.09-1.14,2.17-1.74,3.25q-.69,1.24-1.41,2.45v0l-.47.79q-2.38,3.95-5.09,7.68-1.49,2.07-3.08,4.06a110.27,110.27,0,0,1-69.85,40.43q-1.39.21-2.79.38-3.64.45-7.34.67-2.65.16-5.33.18h-1.07c-.81,0-1.62,0-2.43,0l-1.24,0-1.12,0-1.44-.07q-5.29-.29-10.44-1.08A110.39,110.39,0,1,1,2069.16,2959Z" transform="translate(-1848.39 -2848.66)"/><path class="cls-2" d="M2013.43,2910.28h-.6a48.42,48.42,0,0,0-90,12.3,19.25,19.25,0,0,0-26.27,10.67,31.15,31.15,0,1,0-3.78,62.08h112.45a40.07,40.07,0,0,0,4.06-.21c1.37.13,2.76.21,4.17.21a42.53,42.53,0,0,0,0-85.06Z" transform="translate(-1848.39 -2848.66)"/><path class="cls-3" d="M2039.14,2918.94a42.53,42.53,0,0,1-53.88,60.06,48.41,48.41,0,0,0,15.14-83.72,48.41,48.41,0,0,1-73.3,59.27,19.21,19.21,0,0,0,.34-28.86,18.67,18.67,0,0,1-14.92,28.36,19.25,19.25,0,0,1-11.3-.22,19.18,19.18,0,0,0,13.16,5.38,31.16,31.16,0,0,1-46.65,23.53,31.11,31.11,0,0,0,25,12.58h120.67a42.53,42.53,0,0,0,25.71-76.4Z" transform="translate(-1848.39 -2848.66)"/><path class="cls-4" d="M2053.33,3016q-2.38,3.95-5.09,7.68-1.49,2.07-3.08,4.06a110.27,110.27,0,0,1-69.85,40.43q-1.39.21-2.79.38-3.64.45-7.34.67l-29.73-29.72v-17.42l-30.93-29.28v-6.9l57.58-64.14v0l0,0S2012.58,2973.74,2053.33,3016Z" transform="translate(-1848.39 -2848.66)"/><path class="cls-5" d="M1935.45,2992.8v46.71l26.65-6.8,26.72,6.8V2992.8h30.92v-6.9c-14.8-17.18-55.46-57.26-57.6-57.26s-57.61,57.26-57.61,57.26v6.9Z" transform="translate(-1848.39 -2848.66)"/><path class="cls-6" d="M1962.14,2928.65a2.79,2.79,0,0,0-.95.6v88.24h.61v15.3l.31-.08,26.72,6.8V2992.8h30.92v-6.9C2004.94,2968.72,1964.28,2928.65,1962.14,2928.65Z" transform="translate(-1848.39 -2848.66)"/><polygon class="cls-7" points="87.06 150.7 87.06 144.15 56.14 144.15 56.14 137.25 113.74 137.25 113.73 150.7 87.06 150.7"/><polygon class="cls-7" points="113.72 165.22 113.72 184.06 87.06 190.85 87.06 165.22 113.72 165.22"/><polygon class="cls-8" points="87.06 137.25 87.06 183.96 113.72 177.16 140.43 183.96 140.43 137.25 171.35 137.25 113.75 73.09 56.14 137.25 87.06 137.25"/><polygon class="cls-9" points="113.72 73.1 56.14 137.25 87.06 137.25 87.06 183.96 113.72 177.16 113.72 73.1"/></svg>