<svg xmlns="http://www.w3.org/2000/svg" viewBox="0 0 220.76 220.76"><defs><style>.cls-1{isolation:isolate;}.cls-2{fill:#8ac0c7;}.cls-3{fill:#fff;}.cls-4{fill:#d72027;}.cls-5{fill:#f05439;}.cls-6{fill:#010101;opacity:0.25;mix-blend-mode:multiply;}.cls-7{fill:#d4d1dc;}.cls-8{fill:#a6a2ab;}.cls-9{fill:#e6642a;}.cls-10{fill:#b95227;}</style></defs><g class="cls-1"><g id="Layer_1" data-name="Layer 1"><path class="cls-2" d="M3246.41,2328.42a110.38,110.38,0,1,0,110.38,110.38A110.51,110.51,0,0,0,3246.41,2328.42Z" transform="translate(-3136.03 -2328.42)"/><path class="cls-3" d="M3246.41,2366.6a72.2,72.2,0,1,0,72.21,72.2A72.29,72.29,0,0,0,3246.41,2366.6Z" transform="translate(-3136.03 -2328.42)"/><path class="cls-4" d="M3246.41,2379.24A59.56,59.56,0,1,0,3306,2438.8,59.63,59.63,0,0,0,3246.41,2379.24Z" transform="translate(-3136.03 -2328.42)"/><circle class="cls-5" cx="110.38" cy="110.38" r="46.96"/><circle class="cls-4" cx="110.38" cy="110.38" r="32.85"/><circle class="cls-3" cx="110.38" cy="110.38" r="20.99"/><circle class="cls-4" cx="110.38" cy="110.38" r="8.19"/><polygon class="cls-6" points="214.71 75.9 179.95 81.13 171.56 95.27 108.32 104.78 113.89 116.32 173.92 106.09 185.22 116.13 219.97 110.91 202.93 95.76 214.71 75.9"/><path class="cls-7" d="M3243.38,2433.14a19.24,19.24,0,0,0,1.62,6.62l84.39-47.2-3-5.41Z" transform="translate(-3136.03 -2328.42)"/><path class="cls-8" d="M3245,2439.76a12.27,12.27,0,0,0,4.82,5l83-46-3.44-6.22Z" transform="translate(-3136.03 -2328.42)"/><polygon class="cls-9" points="164.29 56.19 161.95 82.08 192.71 65.06 192.69 65.05 195.03 39.16 164.29 56.19"/><polygon class="cls-10" points="161.95 82.08 184.93 93.44 215.66 76.41 192.71 65.06 161.95 82.08"/></g></g></svg>