<svg id="Layer_1" data-name="Layer 1" xmlns="http://www.w3.org/2000/svg" viewBox="0 0 220.76 220.76"><defs><style>.cls-1{fill:#e74c3c;}.cls-2,.cls-4{opacity:0.2;}.cls-3{fill:#0d2038;}.cls-4,.cls-5{fill:#fff;}.cls-6{fill:#ccc;}.cls-6,.cls-7{fill-rule:evenodd;}.cls-7{fill:#f2f2f2;}</style></defs><path class="cls-1" d="M3356.79,1398.32a110.29,110.29,0,1,1,0-1.48C3356.79,1397.34,3356.79,1397.83,3356.79,1398.32Z" transform="translate(-3136.03 -1287.95)"/><path class="cls-2" d="M3356.78,1396.85q-2.07-2.24-4.35-4.28l-56.77-56.77a65.94,65.94,0,0,0-49.25-22c-28.08,0-60.07,37.77-60.07,66.13,0,36.51,60.07,103,60.07,103l.1-.1c6.7,7.11,19.2,19.17,23.31,23.45a110.43,110.43,0,0,0,87-107.9C3356.79,1397.83,3356.79,1397.34,3356.78,1396.85Zm-110.37,6.7a31.26,31.26,0,1,1,31.26-31.26A31.26,31.26,0,0,1,3246.41,1403.55Z" transform="translate(-3136.03 -1287.95)"/><path class="cls-3" d="M3246.41,1313.78c-33.18,0-60.07,29.61-60.07,66.13s60.07,103,60.07,103c.58-.33,60.07-67.16,60.07-103C3306.48,1343.39,3279.59,1313.78,3246.41,1313.78Zm0,83.1a24.6,24.6,0,1,1,24.6-24.6A24.6,24.6,0,0,1,3246.41,1396.89Z" transform="translate(-3136.03 -1287.95)"/><path class="cls-4" d="M3220.34,1372.29a26.07,26.07,0,0,1,25.65-26.06v-32.44c-33,.25-59.65,29.75-59.65,66.12,0,34.73,54.34,96.54,59.65,102.49v-84.06A26.06,26.06,0,0,1,3220.34,1372.29Z" transform="translate(-3136.03 -1287.95)"/><path class="cls-5" d="M3246.41,1348.08a24.2,24.2,0,1,0,24.2,24.21A24.21,24.21,0,0,0,3246.41,1348.08Zm0,46.26a22.05,22.05,0,1,1,22.05-22.05A22.08,22.08,0,0,1,3246.41,1394.34Z" transform="translate(-3136.03 -1287.95)"/><path class="cls-6" d="M3229.3,1355.17a24.19,24.19,0,0,1,33.92-.28l10.68-10.68a39.29,39.29,0,0,0-55.57,55.57L3229,1389.1A24.19,24.19,0,0,1,3229.3,1355.17Z" transform="translate(-3136.03 -1287.95)"/><path class="cls-7" d="M3274.21,1344.5c-.1-.1-.21-.18-.31-.28l-10.68,10.68.31.28a24.2,24.2,0,0,1-34.23,34.23c-.1-.1-.18-.21-.28-.31l-10.69,10.69c.1.1.18.2.28.31a39.31,39.31,0,0,0,55.59-55.59Z" transform="translate(-3136.03 -1287.95)"/></svg>