<svg id="Layer_1" data-name="Layer 1" xmlns="http://www.w3.org/2000/svg" viewBox="0 0 220.76 220.76"><defs><style>.cls-1{fill:#e54c3b;}.cls-2{fill:#b2b4b6;}.cls-10,.cls-3,.cls-5{fill:#fff;}.cls-4,.cls-9{fill:#0e2037;}.cls-5{opacity:0.2;}.cls-6{fill:#eae741;}.cls-7{fill:#9db2bd;}.cls-8{fill:#231f20;}.cls-9{stroke:#fff;stroke-miterlimit:10;stroke-width:2.01px;}.cls-10{opacity:0.1;}.cls-11{fill:#364d5c;}</style></defs><path class="cls-1" d="M2324,2154.74a112,112,0,0,0-6.73-20.42,110.35,110.35,0,1,0-113.82,154,108.37,108.37,0,0,0,79.55-21.82c.79-.61,1.57-1.23,2.35-1.86q3.82-3.11,7.34-6.54a111.7,111.7,0,0,0,33.95-78.14,107.85,107.85,0,0,0-2.63-25.19Z" transform="translate(-2105.92 -2068.3)"/><polygon class="cls-2" points="99.78 55.08 98.57 53.85 97.64 55.32 60.22 114.73 65.32 114.19 65.72 118.2 102.64 59.61 103.26 58.62 102.44 57.79 99.78 55.08"/><path class="cls-3" d="M2166.38,2185a14,14,0,0,1,3.68,1.57l37.49-59.51-2.85-2.9Z" transform="translate(-2105.92 -2068.3)"/><path class="cls-4" d="M2178.45,2164a2.21,2.21,0,0,0-1.78-.5,2.26,2.26,0,0,0-1.55,1l-10.87,17.24a2.43,2.43,0,0,0,0,2.51,2.24,2.24,0,0,0,2.17,1.11l2.84-.3.17,1.67a2.33,2.33,0,0,0,1.72,2,2.19,2.19,0,0,0,.77.05,2.26,2.26,0,0,0,1.66-1.05l10.39-16.49a2.41,2.41,0,0,0-.47-3.11Z" transform="translate(-2105.92 -2068.3)"/><polygon class="cls-2" points="67.31 118.56 64.75 123.16 61.38 121.14 85.53 186.49 85.94 187.59 87.07 187.4 90.74 186.75 92.42 186.46 91.81 184.81 67.31 118.56"/><path class="cls-3" d="M2168.14,2188.05l24.53,66.37,3.94-.69-25.09-67.85A14.18,14.18,0,0,1,2168.14,2188.05Z" transform="translate(-2105.92 -2068.3)"/><path class="cls-4" d="M2175.35,2186a2.28,2.28,0,0,0-1.94-1.5,2.24,2.24,0,0,0-2.14,1.17l-1.43,2.56-1.4-.84a2.2,2.2,0,0,0-2.6.25,2.34,2.34,0,0,0-.49.61,2.43,2.43,0,0,0-.15,2l6.8,18.39a2.25,2.25,0,0,0,2.7,1.43l6.24-1.73a2.28,2.28,0,0,0,1.43-1.2,2.42,2.42,0,0,0,.1-1.91Z" transform="translate(-2105.92 -2068.3)"/><path class="cls-5" d="M2324,2154.74c-13.72-6-64-28.07-64.14-28.14-3.82-2.78-15.56,16-15.56,16s-17.44,19.84-13.81,23.49c.13.22,43.17,63.83,62.19,91.95a111.7,111.7,0,0,0,33.95-78.14,107.85,107.85,0,0,0-2.63-25.19Z" transform="translate(-2105.92 -2068.3)"/><path class="cls-6" d="M2243.68,2138.75a10.43,10.43,0,0,0-5.21,13.56,9.88,9.88,0,0,0,13.27,5.06,10.43,10.43,0,0,0,5.21-13.56A9.88,9.88,0,0,0,2243.68,2138.75Z" transform="translate(-2105.92 -2068.3)"/><path class="cls-7" d="M2201.9,2125.66l-6.39,6.56a2,2,0,0,0-.55,1.37,2,2,0,0,0,.55,1.37l4.19,4.38a1.85,1.85,0,0,0,1.32.58,1.83,1.83,0,0,0,1.33-.56l5.33-5.48,8.19-8.42-6.84-7.14Z" transform="translate(-2105.92 -2068.3)"/><path class="cls-8" d="M2200.27,2131.54a2.62,2.62,0,0,0-2.59,2.67,2.66,2.66,0,0,0,2.58,2.7,2.62,2.62,0,0,0,2.6-2.67A2.66,2.66,0,0,0,2200.27,2131.54Z" transform="translate(-2105.92 -2068.3)"/><path class="cls-3" d="M2216.21,2246.34a1.52,1.52,0,0,0-.78-.22,1.56,1.56,0,0,0-1.36.82l-1.91,3.45a1.66,1.66,0,0,0-.15,1.23,1.6,1.6,0,0,0,.73,1,1.52,1.52,0,0,0,.78.22,1.56,1.56,0,0,0,1.36-.82l1.91-3.45A1.66,1.66,0,0,0,2216.21,2246.34Z" transform="translate(-2105.92 -2068.3)"/><ellipse class="cls-9" cx="63.92" cy="116.5" rx="8.27" ry="8.58"/><path class="cls-4" d="M2215.78,2250.11h-4.19a3.26,3.26,0,0,0,0,6.51h4.19a3.26,3.26,0,0,0,0-6.51Z" transform="translate(-2105.92 -2068.3)"/><path class="cls-4" d="M2237.92,2111.11c-17.86,1.72-24.72-23.39-35.22-10.56l-7.44,9.09c-10.48,12.81,13.59,16.17,15.78,34.32,1.21,10,8.35,15,16.51,22.19,1.75,1.54,4,1.77,5,.51l30.32-37c1-1.25.44-3.52-1.3-5.05C2251.5,2115.69,2245,2110.42,2237.92,2111.11Z" transform="translate(-2105.92 -2068.3)"/><path class="cls-3" d="M2227.54,2166.15c1.75,1.54,4,1.77,5,.51l30.32-37c1-1.25.44-3.52-1.3-5.05C2261.46,2124.46,2227.35,2166,2227.54,2166.15Z" transform="translate(-2105.92 -2068.3)"/><path class="cls-10" d="M2202.7,2100.55l-7.44,9.09c-7,8.55,1.37,12.81,8.41,20.21-2.43-3.48-4.89-9-1-13.88l7.44-9.09c4.47-5.46,12-1.17,14.78.62C2215.83,2101.54,2210.19,2091.4,2202.7,2100.55Z" transform="translate(-2105.92 -2068.3)"/><path class="cls-10" d="M2206.64,2133.35a37.13,37.13,0,0,0-3-3.5A23.93,23.93,0,0,0,2206.64,2133.35Z" transform="translate(-2105.92 -2068.3)"/><path class="cls-10" d="M2224.93,2107.5l.35.23Z" transform="translate(-2105.92 -2068.3)"/><path class="cls-10" d="M2225.28,2107.72a4.86,4.86,0,0,0,.75.46Z" transform="translate(-2105.92 -2068.3)"/><path class="cls-11" d="M2219.72,2252.64h-35c-4,0-7.32,2.31-7.32,5.16s3.28,5.16,7.32,5.16h35c4,0,7.32-2.31,7.32-5.16S2223.76,2252.64,2219.72,2252.64Z" transform="translate(-2105.92 -2068.3)"/><path class="cls-4" d="M2226.57,2256.9h-48.69c-5.3,0-9.65,2.86-10.13,6.51h69C2236.22,2259.76,2231.87,2256.9,2226.57,2256.9Z" transform="translate(-2105.92 -2068.3)"/></svg>