<svg id="Layer_1" data-name="Layer 1" xmlns="http://www.w3.org/2000/svg" viewBox="0 0 220.76 220.76"><defs><style>.cls-1{fill:#26b99a;}.cls-2{opacity:0.2;}.cls-3{fill:#fff;}.cls-4{fill:#e0e0e0;}.cls-5{fill:#354d5c;}</style></defs><path class="cls-1" d="M781.52,3739.39q0,5.3-.49,10.47c-5.6,59.05-57.15,103-115.54,99.75a110.37,110.37,0,1,1,115.58-120.15Q781.52,3734.36,781.52,3739.39Z" transform="translate(-560.76 -3629.01)"/><path class="cls-2" d="M781.52,3739.39q0,5.3-.49,10.47c-5.6,59.05-57.15,103-115.54,99.75-36.86-36.85-79.47-79.51-79.61-79.68a31.13,31.13,0,0,1,23-55.4,19.24,19.24,0,0,1,26.27-10.67,53.08,53.08,0,0,1,89.66-15.42q1.77,1.5,3.38,3.17a42.44,42.44,0,0,1,30.3,15.29l22.57,22.56Q781.52,3734.36,781.52,3739.39Z" transform="translate(-560.76 -3629.01)"/><path class="cls-3" d="M725.79,3691.54l-.6,0a48.42,48.42,0,0,0-90,12.3,19.24,19.24,0,0,0-26.27,10.67,31.78,31.78,0,0,0-3.78-.24,31.15,31.15,0,1,0,0,62.31H725.79a42.53,42.53,0,1,0,0-85.05Z" transform="translate(-560.76 -3629.01)"/><path class="cls-4" d="M751.51,3700.2a42.32,42.32,0,0,1,5.57,21c0,30.67-31.52,51.16-59.45,39a48.41,48.41,0,0,0,15.14-83.71,48.18,48.18,0,0,1,4.8,21c0,40.38-46.54,62.76-78.1,38.23a19.21,19.21,0,0,0,.34-28.86,18.67,18.67,0,0,1-14.92,28.36,19.2,19.2,0,0,1-11.3-.22,19.2,19.2,0,0,0,13.16,5.39A31.16,31.16,0,0,1,580.1,3764a31.12,31.12,0,0,0,25,12.58H725.79a42.52,42.52,0,0,0,25.71-76.39Z" transform="translate(-560.76 -3629.01)"/><path class="cls-5" d="M698.68,3799.75l-31.14-25.85v14.3h-.06c-22.33.91-33.47-24.93-18.2-46.37-26.57,20.36-18,61.45,17.36,69.1.32.08.5.14.9.21v14.45Z" transform="translate(-560.76 -3629.01)"/><path class="cls-5" d="M658.86,3731.39,690,3757.23s0-14.31,0-14.31c22.86-.93,33.08,25.46,18.17,46.37,25.71-19.71,19-58.74-14.67-68.4-1-.26-1.81-.51-2.65-.69a3.94,3.94,0,0,1-.86-.21v-14.45Z" transform="translate(-560.76 -3629.01)"/></svg>